<svg width="96" height="96" viewBox="0 0 96 96" fill="none" xmlns="http://www.w3.org/2000/svg">
<g clip-path="url(#clip0_5472_11142)">
<path d="M48 96C74.5097 96 96 74.5097 96 48C96 21.4903 74.5097 0 48 0C21.4903 0 0 21.4903 0 48C0 74.5097 21.4903 96 48 96Z" fill="#D0D3E0"/>
<mask id="mask0_5472_11142" style="mask-type:luminance" maskUnits="userSpaceOnUse" x="1" y="2" width="97" height="96">
<path d="M49.9918 97.984C76.497 97.984 97.9838 76.4973 97.9838 49.992C97.9838 23.4867 76.497 2 49.9918 2C23.4865 2 1.99976 23.4867 1.99976 49.992C1.99976 76.4973 23.4865 97.984 49.9918 97.984Z" fill="white"/>
</mask>
<g mask="url(#mask0_5472_11142)">
<path opacity="0.696" d="M48 54.399C56.8351 54.399 63.9974 47.2367 63.9974 38.4016C63.9974 29.5665 56.8351 22.4043 48 22.4043C39.1649 22.4043 32.0027 29.5665 32.0027 38.4016C32.0027 47.2367 39.1649 54.399 48 54.399Z" fill="white"/>
</g>
<mask id="mask1_5472_11142" style="mask-type:luminance" maskUnits="userSpaceOnUse" x="1" y="2" width="97" height="96">
<path d="M49.9918 97.984C76.497 97.984 97.9838 76.4973 97.9838 49.992C97.9838 23.4867 76.497 2 49.9918 2C23.4865 2 1.99976 23.4867 1.99976 49.992C1.99976 76.4973 23.4865 97.984 49.9918 97.984Z" fill="white"/>
</mask>
<g mask="url(#mask1_5472_11142)">
<path opacity="0.696" d="M49.5998 149.176C73.4545 149.176 92.7926 129.838 92.7926 105.983C92.7926 82.1281 73.4545 62.79 49.5998 62.79C25.7451 62.79 6.40698 82.1281 6.40698 105.983C6.40698 129.838 25.7451 149.176 49.5998 149.176Z" fill="white"/>
</g>
</g>
<defs>
<clipPath id="clip0_5472_11142">
<rect width="96" height="96" fill="white"/>
</clipPath>
</defs>
</svg>
