<svg width="128" height="40" viewBox="0 0 128 40" fill="none" xmlns="http://www.w3.org/2000/svg">
<g clip-path="url(#clip0_6650_16107)">
<path d="M56.2063 20.4619C56.2063 18.1029 55.0137 16.9234 52.5892 16.9234C51.3441 16.9234 50.0466 17.2117 48.723 17.749V26.6347C48.723 27.0541 48.7754 27.1327 49.1948 27.3162C50.1659 27.6819 51.1977 27.8598 52.2353 27.8404C54.8827 27.8404 56.2063 26.5954 56.2063 24.066V20.4619ZM48.2512 9.82922C48.5657 9.82922 48.723 9.98649 48.723 10.301V16.12C50.335 15.5695 51.7111 15.3205 52.8251 15.3205C56.2326 15.3205 57.9494 17.0112 57.9494 20.4187V24.1145C57.9494 27.6792 56.0753 29.4485 52.3664 29.4485C50.5709 29.4485 49.1161 29.1864 47.9759 28.6753C47.1503 28.2821 46.9668 28.0724 46.9668 27.2467V10.305C46.9668 9.99042 47.1241 9.83316 47.4386 9.83316L48.2512 9.82922Z" fill="#010101"/>
<path d="M67.3986 15.3245C67.7132 15.3245 67.8704 15.4817 67.8704 15.7963V16.4778C67.8704 16.7923 67.7132 16.9496 67.3986 16.9496H66.5468C65.3787 16.9286 64.2161 17.115 63.1131 17.5C62.9758 17.5512 62.8585 17.645 62.7784 17.7676C62.6982 17.8902 62.6593 18.0352 62.6675 18.1815V28.6268C62.6675 28.9413 62.5102 29.0986 62.1957 29.0986H61.37C61.0555 29.0986 60.8982 28.9413 60.8982 28.6268V17.6049C60.8982 16.8054 61.1341 16.4909 61.8811 16.1501C63.2048 15.6521 64.7644 15.3638 66.5861 15.3507H67.3986V15.3245Z" fill="#010101"/>
<path d="M71.1469 15.7045C71.4614 15.7045 71.6187 15.8618 71.6187 16.1763V28.6006C71.6187 28.9151 71.4614 29.0724 71.1469 29.0724H70.3212C70.0067 29.0724 69.8494 28.9151 69.8494 28.6006V16.1763C69.8494 15.8618 70.0067 15.7045 70.3212 15.7045H71.1469ZM70.8061 10.9209C71.54 10.9209 71.7628 11.1568 71.7628 11.8776V12.0572C71.7628 12.7911 71.5269 13.0139 70.8061 13.0139H70.6489C69.9149 13.0139 69.6921 12.778 69.6921 12.0572V11.8737C69.6921 11.1398 69.928 10.917 70.6489 10.917L70.8061 10.9209Z" fill="#010101"/>
<path d="M84.3181 20.593C84.3181 18.2339 82.9158 16.8185 80.2947 16.8185C77.6997 16.8185 76.2974 18.2208 76.2974 20.593V21.4933H84.3312V20.589L84.3181 20.593ZM74.5544 20.8027C74.5544 17.3427 76.5595 15.3245 80.2947 15.3245C84.0691 15.3245 86.0612 17.4607 86.0612 20.6978V22.1263C86.0612 22.6244 85.7991 22.8603 85.2748 22.8603H76.2843V24.3674C76.2843 26.6347 77.6604 27.9322 80.1767 27.9322C82.1033 27.9322 83.4532 27.1983 84.2526 25.7697C84.4623 25.4814 84.7244 25.429 84.9996 25.5862L85.5501 25.8746C85.8908 26.0581 85.9432 26.294 85.7335 26.6216C84.6982 28.4957 82.8459 29.4306 80.1767 29.4262C76.4023 29.4262 74.5413 27.4211 74.5413 24.1708V20.8027H74.5544Z" fill="#010101"/>
<path d="M98.7215 9.82922C99.036 9.82922 99.1933 9.98649 99.1933 10.301V28.5966C99.1933 28.9112 99.036 29.0684 98.7215 29.0684H97.9221C97.5289 29.0684 97.4503 28.9374 97.4503 28.5966V11.4452H95.4713C92.6929 11.4452 91.7493 12.297 91.7493 15.0361V15.7176H94.7636C95.0781 15.7176 95.2354 15.8749 95.2354 16.1894V16.8709C95.2354 17.1855 95.0781 17.3427 94.7636 17.3427H91.7493V28.6268C91.7493 28.9675 91.6182 29.0986 91.2774 29.0986H90.478C90.1635 29.0986 90.0062 28.9413 90.0062 28.6268V17.3427H87.6996C87.385 17.3427 87.2278 17.1855 87.2278 16.8709V16.1894C87.2278 15.8487 87.3588 15.7176 87.6996 15.7176H90.0062V15.0099C90.0062 11.3403 91.592 9.83316 95.4582 9.83316L98.7215 9.82922Z" fill="#010101"/>
<path d="M111.998 20.593C111.998 18.2339 110.595 16.8185 107.974 16.8185C105.379 16.8185 103.977 18.2208 103.977 20.593V21.4933H112.011V20.589L111.998 20.593ZM102.221 20.8027C102.221 17.3427 104.226 15.3245 107.961 15.3245C111.735 15.3245 113.728 17.4607 113.728 20.6978V22.1263C113.728 22.6244 113.465 22.8603 112.954 22.8603H103.964V24.3674C103.964 26.6347 105.34 27.9322 107.856 27.9322C109.783 27.9322 111.133 27.1983 111.932 25.7697C112.142 25.4814 112.404 25.429 112.692 25.5862L113.243 25.8746C113.583 26.0581 113.636 26.294 113.426 26.6216C112.391 28.4957 110.538 29.4306 107.869 29.4262C104.095 29.4262 102.234 27.4211 102.234 24.1708V20.8027H102.221Z" fill="#010101"/>
<path d="M126.938 15.7046C127.253 15.7046 127.41 15.8619 127.41 16.1764V29.8719C127.41 33.6201 125.562 35.4811 121.879 35.4811C119.442 35.4811 117.725 34.5506 116.702 32.7027C116.493 32.362 116.545 32.0999 116.886 31.9295L117.463 31.6412C117.777 31.4577 118.039 31.5363 118.21 31.8246C118.97 33.2007 120.162 33.9085 121.853 33.9085C124.369 33.9085 125.654 32.5848 125.654 29.9636V28.4303C124.12 28.8758 122.77 29.1118 121.578 29.1118C118.144 29.1118 116.427 27.4211 116.427 24.0398V16.1895C116.427 15.8488 116.558 15.7177 116.899 15.7177H117.699C118.092 15.7177 118.17 15.8488 118.17 16.1895V23.9612C118.17 26.3202 119.389 27.526 121.814 27.526C122.928 27.526 124.199 27.2901 125.654 26.8182V16.1895C125.654 15.875 125.811 15.7177 126.125 15.7177H126.938V15.7046Z" fill="#010101"/>
<path d="M24.3856 18.2471C22.3542 17.9718 20.5326 18.9548 19.3006 20.5275L19.1827 20.6847C19.3137 19.5052 19.471 18.3257 19.6545 17.1462C19.7462 16.5564 19.8511 15.9536 19.9559 15.3638C20.6335 14.9205 21.2855 14.4392 21.9087 13.9222C23.6386 12.5068 25.2375 10.6851 25.1851 8.29982C25.1327 5.79662 22.1708 5.71799 20.7947 7.27757C19.9035 8.27361 19.6151 9.66281 19.3137 10.921C19.0385 12.0874 18.7895 13.2669 18.5667 14.4464C17.5211 15.0966 16.4041 15.6243 15.2378 16.0191C14.3073 16.3336 14.7005 17.8146 15.6441 17.5C16.5349 17.1976 17.3985 16.8205 18.2259 16.3729C17.6434 19.9325 17.3019 23.5272 17.2037 27.1328C17.1775 28.1419 18.6322 28.0895 18.7371 27.1328C19.0385 24.3674 19.8642 19.977 23.4027 19.7018C26.1549 19.4921 27.9242 22.2967 27.6096 24.813C27.3082 27.2507 25.8273 29.4918 23.7566 30.8024C21.5155 32.2178 18.2784 32.8337 15.8145 31.6673C12.9705 30.3174 11.293 27.0148 11.7386 23.9218C11.8697 22.952 10.3887 22.5326 10.2577 23.5156C9.77274 26.9493 11.1751 30.4354 14.0583 32.4275C16.994 34.4458 21.083 34.0657 24.1104 32.3882C25.457 31.6323 26.6107 30.5754 27.4815 29.3C28.3522 28.0246 28.9163 26.5653 29.1299 25.0358C29.5493 21.9822 27.6096 18.6796 24.3856 18.2471ZM20.5981 12.2446C20.8733 10.9865 21.0568 9.08616 22.0921 8.15566C22.4329 7.85422 23.3241 7.40863 23.6255 7.98528C23.8352 8.36535 23.5993 9.07306 23.4944 9.45312C23.1799 10.5933 22.4198 11.419 21.5679 12.2053C21.2009 12.5461 20.8078 12.8737 20.4015 13.2014C20.4539 12.8737 20.5325 12.5592 20.5981 12.2446Z" fill="#010101"/>
<path d="M26.8365 1.1965C18.9599 -1.71298 9.77283 0.81643 4.47811 7.32998C-0.816604 13.8435 -1.51121 23.2665 2.90542 30.4616C7.25653 37.5387 15.7097 41.2214 23.8615 39.6356C33.1666 37.827 39.916 29.4131 39.9815 20.0032C39.9291 11.6549 34.6868 4.09286 26.8365 1.1965ZM26.1943 37.4076C18.9075 39.9895 10.6771 37.696 5.73626 31.7722C0.795401 25.8484 0.166326 17.1462 4.11115 10.5278C8.09529 3.85696 16.0898 0.305307 23.7173 1.90421C32.2492 3.68659 38.3957 11.3272 38.4613 20.0032C38.3997 27.7225 33.5073 34.8258 26.1943 37.4076Z" fill="#010101"/>
</g>
<defs>
<clipPath id="clip0_6650_16107">
<rect width="127.41" height="40" fill="white"/>
</clipPath>
</defs>
</svg>
